<svg width="27" height="27" viewBox="0 0 27 27" fill="none" xmlns="http://www.w3.org/2000/svg">
<path d="M4.34375 11.9358C4.11997 11.9358 3.90536 11.8469 3.74713 11.6887C3.5889 11.5304 3.5 11.3158 3.5 11.0921V4.34375C3.5 4.11997 3.5889 3.90536 3.74713 3.74713C3.90536 3.5889 4.11997 3.5 4.34375 3.5H11.0938C11.3175 3.5 11.5321 3.5889 11.6904 3.74713C11.8486 3.90536 11.9375 4.11997 11.9375 4.34375V11.0921C11.9375 11.3158 11.8486 11.5304 11.6904 11.6887C11.5321 11.8469 11.3175 11.9358 11.0938 11.9358H4.34375ZM16.1562 11.9358C15.9325 11.9358 15.7179 11.8469 15.5596 11.6887C15.4014 11.5304 15.3125 11.3158 15.3125 11.0921V4.34375C15.3125 4.11997 15.4014 3.90536 15.5596 3.74713C15.7179 3.5889 15.9325 3.5 16.1562 3.5H22.9046C23.1283 3.5 23.343 3.5889 23.5012 3.74713C23.6594 3.90536 23.7483 4.11997 23.7483 4.34375V11.0921C23.7483 11.3158 23.6594 11.5304 23.5012 11.6887C23.343 11.8469 23.1283 11.9358 22.9046 11.9358H16.1562ZM4.34375 23.7483C4.11997 23.7483 3.90536 23.6594 3.74713 23.5012C3.5889 23.343 3.5 23.1283 3.5 22.9046V16.1546C3.5 15.9308 3.5889 15.7162 3.74713 15.5579C3.90536 15.3997 4.11997 15.3108 4.34375 15.3108H11.0938C11.3175 15.3108 11.5321 15.3997 11.6904 15.5579C11.8486 15.7162 11.9375 15.9308 11.9375 16.1546V22.9046C11.9375 23.1283 11.8486 23.343 11.6904 23.5012C11.5321 23.6594 11.3175 23.7483 11.0938 23.7483H4.34375ZM16.1562 23.7483C15.9325 23.7483 15.7179 23.6594 15.5596 23.5012C15.4014 23.343 15.3125 23.1283 15.3125 22.9046V16.1546C15.3125 15.9308 15.4014 15.7162 15.5596 15.5579C15.7179 15.3997 15.9325 15.3108 16.1562 15.3108H22.9046C23.1283 15.3108 23.343 15.3997 23.5012 15.5579C23.6594 15.7162 23.7483 15.9308 23.7483 16.1546V22.9046C23.7483 23.1283 23.6594 23.343 23.5012 23.5012C23.343 23.6594 23.1283 23.7483 22.9046 23.7483H16.1562Z" fill="black"/>
</svg>
